# xmcd
#
# Track frame offsets: 
#        150
#        13143
#        32270
#        42046
#        51677
#        62869
#        74881
#        86405
#        97872
#        109182
#        119295
#        127110
#        138695
#        152061
#        161422
#        172234
#        185748
#        199143
#        210487
#        220062
#        230972
#        241086
#        254009
#        265342
#        276404
#        288133
#        301336
#        313749
#        324618
#
# Disc length: 4492 seconds
#
# Revision: 0
# Processed by: cddbd v1.5.2PL0 Copyright (c) Steve Scherf et al.
# Submitted via: ExactAudioCopy v1.3
#
DISCID=c4118a1d
DTITLE=Various Artist - Mighty Instrumentals R&B Style 1961 [CD1]
DYEAR=1961
DGENRE=R&B
TTITLE0=Freddy King - Sen-Sa-Shun
TTITLE1=Phil Upchurch - Cha Cha Cha Blues
TTITLE2=Albert King - This Morning
TTITLE3=Earl Hooker - Rockin' Wild
TTITLE4=Reggie Boyd - Nothing But Good
TTITLE5=Bo Diddley - Congo
TTITLE6=The Mar-Keys - Sack O'Woe
TTITLE7=Herbie Mann - Comin' Home Baby
TTITLE8=The Poor Boys - Wash Board
TTITLE9=Ike Turner - Trackdown Twist
TTITLE10=Al Tousan - Moo Moo
TTITLE11=Long John Hunter - El Paso Rock
TTITLE12=The Red Tops - Caravan
TTITLE13=Nat Kendrick - Showdown
TTITLE14=James Brown - Cross Firing
TTITLE15=B.B. King - Mashing the Popeye
TTITLE16=Cleanhead Cootsie - Freddy the Freeloader
TTITLE17=Magic Sam - Do the Camel Walk
TTITLE18=Bill Elliot Combo - Slow Freight (pt. 1)
TTITLE19=Bill Elliot Combo - Slow Freight (pt. 2)
TTITLE20=Gus Jenkins - Off the Road
TTITLE21=Renaldo Jackson - Congolese Tip
TTITLE22=Hank Marr - The Push
TTITLE23=Googie Rene - Rowdy Dowdy
TTITLE24=Albert and Charles - Weird
TTITLE25=Eldee Young - Truly
TTITLE26=Dave Hamilton - Cooter Bug
TTITLE27=Mac Rebennack - Feedbag
TTITLE28=Spot Barnett - Black Cherry
EXTD=
EXTT0=
EXTT1=
EXTT2=
EXTT3=
EXTT4=
EXTT5=
EXTT6=
EXTT7=
EXTT8=
EXTT9=
EXTT10=
EXTT11=
EXTT12=
EXTT13=
EXTT14=
EXTT15=
EXTT16=
EXTT17=
EXTT18=
EXTT19=
EXTT20=
EXTT21=
EXTT22=
EXTT23=
EXTT24=
EXTT25=
EXTT26=
EXTT27=
EXTT28=
PLAYORDER=
